# xmcd
#
# Track frame offsets: 
#        150
#        19500
#        38700
#        56647
#        75431
#        90927
#        107137
#        124950
#        143740
#        161823
#        179565
#        195876
#        213103
#        229566
#
# Disc length: 3258 seconds
#
# Revision: 0
# Processed by: cddbd v1.5.2PL0 Copyright (c) Steve Scherf et al.
# Submitted via: ExactAudioCopy v0.99pb4
#
DISCID=a90cb80e
DTITLE=ฝน  ธนสุนทร - ฝน ซูเปอร์ฮิตลูกทุ่ง 1
DYEAR=2008
DGENRE=Country
TTITLE0=มันสว'ี
TTITLE1=หัวใจฝากถาม
TTITLE2=แผลเป็นวันวาเลนไทน์
TTITLE3=พี่ชายชั่วคราว
TTITLE4=ตอนนี้เธออยู่ไหน
TTITLE5=ขี้เหร่'นรัก
TTITLE6=อย่ากลัว
TTITLE7=คนที่เธอ เผลอรัก
TTITLE8=ถึงแม้ไม่แคร์แล้ว
TTITLE9=คนขี้เหร่ที่เธอลืม
TTITLE10=อยู่นานๆนะ
TTITLE11=โลเล
TTITLE12=รักพี่ที่ใจเกินร้อย
TTITLE13=จูบแล้วลา
EXTD=
EXTT0=
EXTT1=
EXTT2=
EXTT3=
EXTT4=
EXTT5=
EXTT6=
EXTT7=
EXTT8=
EXTT9=
EXTT10=
EXTT11=
EXTT12=
EXTT13=
PLAYORDER=
